<svg width="17" height="18" viewBox="0 0 17 18" fill="none" xmlns="http://www.w3.org/2000/svg">
<path d="M0.116063 11.5899L1.85043 14.5278C1.96558 14.7227 2.15505 14.8648 2.37718 14.9229C2.59932 14.9811 2.83594 14.9504 3.03501 14.8378L4.24559 14.1534C4.74856 14.5414 5.30443 14.8598 5.88891 15.0976V16.4545C5.88891 16.6797 5.98027 16.8956 6.1429 17.0549C6.30553 17.2141 6.5261 17.3036 6.75609 17.3036H10.2248C10.4548 17.3036 10.6754 17.2141 10.838 17.0549C11.0007 16.8956 11.092 16.6797 11.092 16.4545V15.0976C11.6811 14.8574 12.2339 14.5398 12.7353 14.1534L13.9459 14.8378C14.3596 15.0713 14.892 14.9312 15.1305 14.5278L16.8649 11.5899C16.979 11.3948 17.0098 11.1634 16.9505 10.9461C16.8912 10.7289 16.7467 10.5434 16.5483 10.43L15.3586 9.75665C15.4515 9.13042 15.4509 8.49428 15.3568 7.86822L16.5466 7.19487C16.9594 6.96137 17.1025 6.43916 16.8631 6.03498L15.1288 3.09704C15.0136 2.90217 14.8241 2.76005 14.602 2.70193C14.3799 2.64381 14.1433 2.67445 13.9442 2.78712L12.7336 3.4715C12.2328 3.08463 11.6802 2.76692 11.0911 2.52729V1.1704C11.0911 0.945204 10.9998 0.729229 10.8372 0.569989C10.6745 0.410749 10.454 0.321289 10.224 0.321289H6.75523C6.52524 0.321289 6.30466 0.410749 6.14204 0.569989C5.97941 0.729229 5.88804 0.945204 5.88804 1.1704V2.52729C5.29899 2.76743 4.74612 3.08509 4.24473 3.4715L3.03501 2.78712C2.93647 2.73122 2.82764 2.69489 2.71474 2.68022C2.60185 2.66554 2.48711 2.6728 2.37709 2.70159C2.26707 2.73038 2.16392 2.78012 2.07355 2.84798C1.98318 2.91583 1.90736 3.00047 1.85043 3.09704L0.116063 6.03498C0.0019308 6.23011 -0.0288443 6.46149 0.0304394 6.67874C0.0897231 6.89598 0.234264 7.08149 0.432585 7.19487L1.62236 7.86822C1.52882 8.49436 1.52882 9.13051 1.62236 9.75665L0.432585 10.43C0.0198053 10.6635 -0.12328 11.1857 0.116063 11.5899ZM8.4896 5.41598C10.4026 5.41598 11.9583 6.93929 11.9583 8.81244C11.9583 10.6856 10.4026 12.2089 8.4896 12.2089C6.57659 12.2089 5.02086 10.6856 5.02086 8.81244C5.02086 6.93929 6.57659 5.41598 8.4896 5.41598Z" fill="white"/>
</svg>
